<svg width="397" height="100" viewBox="0 0 397 100" fill="none" xmlns="http://www.w3.org/2000/svg">
<mask id="path-1-outside-1_36:84" maskUnits="userSpaceOnUse" x="0" y="0" width="397" height="100" fill="black">
<rect fill="white" width="397" height="100"/>
<path d="M145.07 97.8789C158.148 97.8789 167.5 89.9336 168.098 77.875H155.688C154.879 83.8164 150.766 87.543 145.105 87.543C138.004 87.543 133.574 81.5312 133.574 71.582C133.574 61.7383 138.039 55.7266 145.07 55.7266C150.73 55.7266 154.984 59.6641 155.617 65.6406H168.027C167.641 53.6523 157.902 45.3906 145.07 45.3906C129.953 45.3906 120.426 55.0586 120.426 71.6172C120.426 88.2109 129.883 97.8789 145.07 97.8789Z"/>
<path d="M173.512 97H185.992V75.4141C185.992 71.125 188.348 68.1367 192.531 68.1367C196.645 68.1367 198.789 70.8086 198.789 75.1328V97H211.234V72.4258C211.234 63.3906 206.488 57.9766 197.945 57.9766C192.109 57.9766 187.926 60.7891 185.957 65.9219H185.711V46.2695H173.512V97Z"/>
<path d="M235.211 66.6602C239.148 66.6602 241.926 69.4023 242.137 73.4805H228.215C228.531 69.5078 231.379 66.6602 235.211 66.6602ZM242.418 84.9062C241.539 87.5078 238.938 89.0898 235.598 89.0898C231.098 89.0898 228.039 85.9258 228.039 81.3555V80.582H253.879V77.0664C253.879 65.3594 246.531 57.8008 235 57.8008C223.293 57.8008 215.945 65.6758 215.945 78.0508C215.945 90.4258 223.223 97.9141 235.422 97.9141C245.441 97.9141 252.473 92.8164 253.668 84.9062H242.418Z"/>
<path d="M261.859 97H274.34V67.8906H281.441V58.9961H273.988V57.3438C273.988 55.1289 275.43 53.793 278.84 53.793C279.824 53.793 280.879 53.8984 281.582 54.0039V46.2695C280.211 45.9883 277.75 45.7422 275.535 45.7422C265.516 45.7422 261.859 49.2227 261.859 56.7812V58.9961H256.762V67.8906H261.859V97Z"/>
<path d="M286.715 70.5273C286.715 75.5195 289.879 78.8242 296.312 80.4766L302.746 82.1289C306.859 83.2188 308.371 84.625 308.371 87.2266C308.371 90.5312 305.312 92.6406 300.355 92.6406C295.398 92.6406 292.516 90.6016 291.848 86.8047H285.73C286.363 93.2734 291.953 97.6328 299.969 97.6328C308.512 97.6328 314.523 93.1328 314.523 86.7695C314.523 81.3906 311.852 78.7188 304.469 76.8555L298.809 75.4844C294.66 74.4297 292.727 72.7422 292.727 70.2109C292.727 67.0117 295.68 64.7969 300.145 64.7969C304.645 64.7969 307.492 66.9766 307.914 70.4922H313.75C313.469 64.3047 307.914 59.8047 300.355 59.8047C292.305 59.8047 286.715 64.2695 286.715 70.5273Z"/>
<path d="M322.855 51.6133V60.4375H317.406V65.4648H322.855V87.5078C322.855 94.5391 325.457 97.2812 332.172 97.2812C333.613 97.2812 335.301 97.1758 336.039 97V91.8672C335.617 91.9375 334.211 92.043 333.508 92.043C330.379 92.043 328.973 90.5312 328.973 87.1914V65.4648H336.074V60.4375H328.973V51.6133H322.855Z"/>
<path d="M356.219 65.1133C361.984 65.1133 365.816 69.4727 365.957 75.5898H346.094C346.48 69.5078 350.488 65.1133 356.219 65.1133ZM365.816 86.5234C364.797 89.9688 361.387 92.3242 356.746 92.3242C350.172 92.3242 346.059 87.7188 346.059 80.7227V80.3711H372.285V78.0508C372.285 66.9766 366.203 59.8047 356.324 59.8047C346.234 59.8047 339.766 67.5039 339.766 78.8594C339.766 90.3555 346.129 97.6328 356.605 97.6328C364.586 97.6328 370.773 92.9219 371.828 86.5234H365.816Z"/>
<path d="M378.473 97H384.59V74.2188C384.59 69.0508 387.684 65.6406 392.43 65.6406C393.906 65.6406 395.207 65.8164 395.699 65.9922V60.0508C395.207 59.9805 394.293 59.8047 393.238 59.8047C388.949 59.8047 385.574 62.3711 384.379 66.4141H384.238V60.4375H378.473V97Z"/>
<path d="M72.7052 19.6105C73.6123 19.6105 74.3472 18.8754 74.3472 17.9685V2.64206C74.3472 1.73491 73.6123 1 72.7052 1C71.798 1 71.0631 1.73511 71.0631 2.64206V17.9685C71.0631 18.8756 71.7982 19.6105 72.7052 19.6105Z"/>
<path d="M100.074 57.9264H91.3786C91.5312 56.2543 90.9744 54.5848 89.8469 53.339C88.7077 52.0801 87.0805 51.3579 85.3826 51.3579H78.3565C77.7404 50.0646 76.4203 49.1685 74.8946 49.1685H63.9472C61.8345 49.1685 60.1157 50.8875 60.1157 53V63.8477C60.1157 67.0191 62.4502 69.6382 65.5462 69.9396C65.9281 69.9768 66.309 69.9782 66.6841 69.9435V70.4107C66.6841 73.7277 69.2331 76.4171 72.4872 76.5326C74.1406 76.5881 75.7 75.9931 76.8863 74.8483C78.0729 73.7033 78.7264 72.1642 78.7264 70.5157V54.6421H85.3824C86.1656 54.6421 86.8863 54.962 87.4116 55.5423C87.9371 56.1233 88.1837 56.872 88.1057 57.6512L87.9322 59.3863C87.931 59.3972 87.9298 59.4082 87.9288 59.4194L85.7854 80.8529C84.9705 89.0019 78.18 95.147 69.9904 95.147H36.0096C27.8198 95.147 21.0295 89.0019 20.2148 80.8529L17.8945 57.6514C17.8165 56.8722 18.0631 56.123 18.5886 55.5425C19.1141 54.962 19.8348 54.6423 20.6178 54.6423H55.1897C56.0968 54.6423 56.8318 53.9072 56.8318 53.0002C56.8318 52.0931 56.0968 51.3581 55.1897 51.3581H20.6178C18.9199 51.3581 17.2927 52.0803 16.1535 53.3392C15.026 54.5852 14.4692 56.2545 14.6218 57.9266H5.92639C3.21 57.9264 1 60.1364 1 62.8526V65.0421C1 67.7583 3.21 69.9685 5.92639 69.9685H11.4C12.3072 69.9685 13.0421 69.2333 13.0421 68.3264C13.0421 67.4194 12.307 66.6843 11.4 66.6843H5.92639C5.02086 66.6843 4.28433 65.9478 4.28433 65.0423V62.8528C4.28433 61.9473 5.02086 61.2107 5.92639 61.2107H14.9498L16.9465 81.1799C17.9301 91.015 26.1253 98.4318 36.0094 98.4318H69.9904C79.8742 98.4318 88.0697 91.015 89.0533 81.1799L91.05 61.2107H100.073C100.979 61.2107 101.715 61.9473 101.715 62.8528V65.0423C101.715 65.9478 100.979 66.6843 100.073 66.6843H94.6C93.6928 66.6843 92.9579 67.4194 92.9579 68.3264C92.9579 69.2333 93.693 69.9685 94.6 69.9685H100.074C102.79 69.9685 105 67.7585 105 65.0421V62.8526C105 60.1364 102.79 57.9264 100.074 57.9264ZM75.4421 70.5161C75.4421 71.2656 75.1449 71.9652 74.6054 72.4858C74.0663 73.0062 73.3566 73.2757 72.6038 73.2512C71.1506 73.1994 69.9683 71.9252 69.9683 70.4111V67.7359C69.9683 67.1487 69.6546 66.6065 69.1464 66.3132C68.8925 66.167 68.6093 66.0938 68.3262 66.0938C68.042 66.0938 67.7576 66.1676 67.5031 66.315C67.0044 66.6039 66.4377 66.7266 65.8641 66.6713C64.4822 66.5367 63.3998 65.2966 63.3998 63.8481V53C63.3998 52.6982 63.6452 52.4526 63.9472 52.4526H74.8946C75.1965 52.4526 75.4421 52.698 75.4421 53V70.5161Z"/>
<path d="M79.2737 19.6105C80.1808 19.6105 80.9157 18.8754 80.9157 17.9685V2.64206C80.9157 1.73491 80.1808 1 79.2737 1C78.3665 1 77.6316 1.73511 77.6316 2.64206V17.9685C77.6316 18.8756 78.3667 19.6105 79.2737 19.6105Z"/>
<path d="M19.5685 44.9985C19.7755 44.9985 19.9843 44.9896 20.1941 44.9711L87.8093 39.0559C91.7181 38.7134 94.6199 35.2556 94.2778 31.3467C93.9356 27.438 90.4774 24.5355 86.5688 24.8782L65.3025 26.7388L65.064 24.0123C64.7745 20.705 61.8424 18.2512 58.541 18.5391L45.4543 19.6839C42.1468 19.9733 39.6917 22.8995 39.9809 26.2068L40.2196 28.9332L18.9534 30.7938C17.0599 30.9595 15.3443 31.8527 14.1225 33.3087C12.9007 34.7647 12.3191 36.6093 12.4847 38.503C12.8091 42.2017 15.9228 44.9987 19.5685 44.9985ZM16.6384 35.4196C17.2963 34.6355 18.2203 34.1545 19.2396 34.0653L42.13 32.0627C42.134 32.0625 42.1379 32.0621 42.1418 32.0619C42.146 32.0615 42.1499 32.0611 42.1537 32.0609L46.5743 31.6739C47.4778 31.5949 48.1459 30.7985 48.0671 29.895C47.9881 28.9917 47.1892 28.3256 46.2881 28.4022L43.4913 28.647L43.2528 25.9206C43.1891 25.1922 43.4127 24.4829 43.8825 23.9227C44.3524 23.3627 45.0123 23.0194 45.7405 22.9556L58.8273 21.8108C60.3312 21.6802 61.6604 22.7949 61.7923 24.2985L62.0309 27.025L52.8566 27.8278C51.9531 27.9068 51.285 28.7032 51.3638 29.6067C51.4429 30.5102 52.2399 31.1787 53.1428 31.0995L86.8552 28.1499C88.9631 27.9677 90.8221 29.5283 91.0063 31.6329C91.1906 33.7375 89.6279 35.5997 87.5233 35.784L19.9077 41.6994C18.8892 41.7887 17.8951 41.4755 17.1111 40.8178C16.327 40.1599 15.846 39.2359 15.7568 38.2166C15.6677 37.1969 15.9805 36.2036 16.6384 35.4196Z"/>
</mask>
<path d="M145.07 97.8789C158.148 97.8789 167.5 89.9336 168.098 77.875H155.688C154.879 83.8164 150.766 87.543 145.105 87.543C138.004 87.543 133.574 81.5312 133.574 71.582C133.574 61.7383 138.039 55.7266 145.07 55.7266C150.73 55.7266 154.984 59.6641 155.617 65.6406H168.027C167.641 53.6523 157.902 45.3906 145.07 45.3906C129.953 45.3906 120.426 55.0586 120.426 71.6172C120.426 88.2109 129.883 97.8789 145.07 97.8789Z" fill="#334B36"/>
<path d="M173.512 97H185.992V75.4141C185.992 71.125 188.348 68.1367 192.531 68.1367C196.645 68.1367 198.789 70.8086 198.789 75.1328V97H211.234V72.4258C211.234 63.3906 206.488 57.9766 197.945 57.9766C192.109 57.9766 187.926 60.7891 185.957 65.9219H185.711V46.2695H173.512V97Z" fill="#334B36"/>
<path d="M235.211 66.6602C239.148 66.6602 241.926 69.4023 242.137 73.4805H228.215C228.531 69.5078 231.379 66.6602 235.211 66.6602ZM242.418 84.9062C241.539 87.5078 238.938 89.0898 235.598 89.0898C231.098 89.0898 228.039 85.9258 228.039 81.3555V80.582H253.879V77.0664C253.879 65.3594 246.531 57.8008 235 57.8008C223.293 57.8008 215.945 65.6758 215.945 78.0508C215.945 90.4258 223.223 97.9141 235.422 97.9141C245.441 97.9141 252.473 92.8164 253.668 84.9062H242.418Z" fill="#334B36"/>
<path d="M261.859 97H274.34V67.8906H281.441V58.9961H273.988V57.3438C273.988 55.1289 275.43 53.793 278.84 53.793C279.824 53.793 280.879 53.8984 281.582 54.0039V46.2695C280.211 45.9883 277.75 45.7422 275.535 45.7422C265.516 45.7422 261.859 49.2227 261.859 56.7812V58.9961H256.762V67.8906H261.859V97Z" fill="#334B36"/>
<path d="M286.715 70.5273C286.715 75.5195 289.879 78.8242 296.312 80.4766L302.746 82.1289C306.859 83.2188 308.371 84.625 308.371 87.2266C308.371 90.5312 305.312 92.6406 300.355 92.6406C295.398 92.6406 292.516 90.6016 291.848 86.8047H285.73C286.363 93.2734 291.953 97.6328 299.969 97.6328C308.512 97.6328 314.523 93.1328 314.523 86.7695C314.523 81.3906 311.852 78.7188 304.469 76.8555L298.809 75.4844C294.66 74.4297 292.727 72.7422 292.727 70.2109C292.727 67.0117 295.68 64.7969 300.145 64.7969C304.645 64.7969 307.492 66.9766 307.914 70.4922H313.75C313.469 64.3047 307.914 59.8047 300.355 59.8047C292.305 59.8047 286.715 64.2695 286.715 70.5273Z" fill="#334B36"/>
<path d="M322.855 51.6133V60.4375H317.406V65.4648H322.855V87.5078C322.855 94.5391 325.457 97.2812 332.172 97.2812C333.613 97.2812 335.301 97.1758 336.039 97V91.8672C335.617 91.9375 334.211 92.043 333.508 92.043C330.379 92.043 328.973 90.5312 328.973 87.1914V65.4648H336.074V60.4375H328.973V51.6133H322.855Z" fill="#334B36"/>
<path d="M356.219 65.1133C361.984 65.1133 365.816 69.4727 365.957 75.5898H346.094C346.48 69.5078 350.488 65.1133 356.219 65.1133ZM365.816 86.5234C364.797 89.9688 361.387 92.3242 356.746 92.3242C350.172 92.3242 346.059 87.7188 346.059 80.7227V80.3711H372.285V78.0508C372.285 66.9766 366.203 59.8047 356.324 59.8047C346.234 59.8047 339.766 67.5039 339.766 78.8594C339.766 90.3555 346.129 97.6328 356.605 97.6328C364.586 97.6328 370.773 92.9219 371.828 86.5234H365.816Z" fill="#334B36"/>
<path d="M378.473 97H384.59V74.2188C384.59 69.0508 387.684 65.6406 392.43 65.6406C393.906 65.6406 395.207 65.8164 395.699 65.9922V60.0508C395.207 59.9805 394.293 59.8047 393.238 59.8047C388.949 59.8047 385.574 62.3711 384.379 66.4141H384.238V60.4375H378.473V97Z" fill="#334B36"/>
<path d="M72.7052 19.6105C73.6123 19.6105 74.3472 18.8754 74.3472 17.9685V2.64206C74.3472 1.73491 73.6123 1 72.7052 1C71.798 1 71.0631 1.73511 71.0631 2.64206V17.9685C71.0631 18.8756 71.7982 19.6105 72.7052 19.6105Z" fill="#334B36"/>
<path d="M100.074 57.9264H91.3786C91.5312 56.2543 90.9744 54.5848 89.8469 53.339C88.7077 52.0801 87.0805 51.3579 85.3826 51.3579H78.3565C77.7404 50.0646 76.4203 49.1685 74.8946 49.1685H63.9472C61.8345 49.1685 60.1157 50.8875 60.1157 53V63.8477C60.1157 67.0191 62.4502 69.6382 65.5462 69.9396C65.9281 69.9768 66.309 69.9782 66.6841 69.9435V70.4107C66.6841 73.7277 69.2331 76.4171 72.4872 76.5326C74.1406 76.5881 75.7 75.9931 76.8863 74.8483C78.0729 73.7033 78.7264 72.1642 78.7264 70.5157V54.6421H85.3824C86.1656 54.6421 86.8863 54.962 87.4116 55.5423C87.9371 56.1233 88.1837 56.872 88.1057 57.6512L87.9322 59.3863C87.931 59.3972 87.9298 59.4082 87.9288 59.4194L85.7854 80.8529C84.9705 89.0019 78.18 95.147 69.9904 95.147H36.0096C27.8198 95.147 21.0295 89.0019 20.2148 80.8529L17.8945 57.6514C17.8165 56.8722 18.0631 56.123 18.5886 55.5425C19.1141 54.962 19.8348 54.6423 20.6178 54.6423H55.1897C56.0968 54.6423 56.8318 53.9072 56.8318 53.0002C56.8318 52.0931 56.0968 51.3581 55.1897 51.3581H20.6178C18.9199 51.3581 17.2927 52.0803 16.1535 53.3392C15.026 54.5852 14.4692 56.2545 14.6218 57.9266H5.92639C3.21 57.9264 1 60.1364 1 62.8526V65.0421C1 67.7583 3.21 69.9685 5.92639 69.9685H11.4C12.3072 69.9685 13.0421 69.2333 13.0421 68.3264C13.0421 67.4194 12.307 66.6843 11.4 66.6843H5.92639C5.02086 66.6843 4.28433 65.9478 4.28433 65.0423V62.8528C4.28433 61.9473 5.02086 61.2107 5.92639 61.2107H14.9498L16.9465 81.1799C17.9301 91.015 26.1253 98.4318 36.0094 98.4318H69.9904C79.8742 98.4318 88.0697 91.015 89.0533 81.1799L91.05 61.2107H100.073C100.979 61.2107 101.715 61.9473 101.715 62.8528V65.0423C101.715 65.9478 100.979 66.6843 100.073 66.6843H94.6C93.6928 66.6843 92.9579 67.4194 92.9579 68.3264C92.9579 69.2333 93.693 69.9685 94.6 69.9685H100.074C102.79 69.9685 105 67.7585 105 65.0421V62.8526C105 60.1364 102.79 57.9264 100.074 57.9264ZM75.4421 70.5161C75.4421 71.2656 75.1449 71.9652 74.6054 72.4858C74.0663 73.0062 73.3566 73.2757 72.6038 73.2512C71.1506 73.1994 69.9683 71.9252 69.9683 70.4111V67.7359C69.9683 67.1487 69.6546 66.6065 69.1464 66.3132C68.8925 66.167 68.6093 66.0938 68.3262 66.0938C68.042 66.0938 67.7576 66.1676 67.5031 66.315C67.0044 66.6039 66.4377 66.7266 65.8641 66.6713C64.4822 66.5367 63.3998 65.2966 63.3998 63.8481V53C63.3998 52.6982 63.6452 52.4526 63.9472 52.4526H74.8946C75.1965 52.4526 75.4421 52.698 75.4421 53V70.5161Z" fill="#334B36"/>
<path d="M79.2737 19.6105C80.1808 19.6105 80.9157 18.8754 80.9157 17.9685V2.64206C80.9157 1.73491 80.1808 1 79.2737 1C78.3665 1 77.6316 1.73511 77.6316 2.64206V17.9685C77.6316 18.8756 78.3667 19.6105 79.2737 19.6105Z" fill="#334B36"/>
<path d="M19.5685 44.9985C19.7755 44.9985 19.9843 44.9896 20.1941 44.9711L87.8093 39.0559C91.7181 38.7134 94.6199 35.2556 94.2778 31.3467C93.9356 27.438 90.4774 24.5355 86.5688 24.8782L65.3025 26.7388L65.064 24.0123C64.7745 20.705 61.8424 18.2512 58.541 18.5391L45.4543 19.6839C42.1468 19.9733 39.6917 22.8995 39.9809 26.2068L40.2196 28.9332L18.9534 30.7938C17.0599 30.9595 15.3443 31.8527 14.1225 33.3087C12.9007 34.7647 12.3191 36.6093 12.4847 38.503C12.8091 42.2017 15.9228 44.9987 19.5685 44.9985ZM16.6384 35.4196C17.2963 34.6355 18.2203 34.1545 19.2396 34.0653L42.13 32.0627C42.134 32.0625 42.1379 32.0621 42.1418 32.0619C42.146 32.0615 42.1499 32.0611 42.1537 32.0609L46.5743 31.6739C47.4778 31.5949 48.1459 30.7985 48.0671 29.895C47.9881 28.9917 47.1892 28.3256 46.2881 28.4022L43.4913 28.647L43.2528 25.9206C43.1891 25.1922 43.4127 24.4829 43.8825 23.9227C44.3524 23.3627 45.0123 23.0194 45.7405 22.9556L58.8273 21.8108C60.3312 21.6802 61.6604 22.7949 61.7923 24.2985L62.0309 27.025L52.8566 27.8278C51.9531 27.9068 51.285 28.7032 51.3638 29.6067C51.4429 30.5102 52.2399 31.1787 53.1428 31.0995L86.8552 28.1499C88.9631 27.9677 90.8221 29.5283 91.0063 31.6329C91.1906 33.7375 89.6279 35.5997 87.5233 35.784L19.9077 41.6994C18.8892 41.7887 17.8951 41.4755 17.1111 40.8178C16.327 40.1599 15.846 39.2359 15.7568 38.2166C15.6677 37.1969 15.9805 36.2036 16.6384 35.4196Z" fill="#334B36"/>
<path d="M145.07 97.8789C158.148 97.8789 167.5 89.9336 168.098 77.875H155.688C154.879 83.8164 150.766 87.543 145.105 87.543C138.004 87.543 133.574 81.5312 133.574 71.582C133.574 61.7383 138.039 55.7266 145.07 55.7266C150.73 55.7266 154.984 59.6641 155.617 65.6406H168.027C167.641 53.6523 157.902 45.3906 145.07 45.3906C129.953 45.3906 120.426 55.0586 120.426 71.6172C120.426 88.2109 129.883 97.8789 145.07 97.8789Z" stroke="#334B36" stroke-width="2" mask="url(#path-1-outside-1_36:84)"/>
<path d="M173.512 97H185.992V75.4141C185.992 71.125 188.348 68.1367 192.531 68.1367C196.645 68.1367 198.789 70.8086 198.789 75.1328V97H211.234V72.4258C211.234 63.3906 206.488 57.9766 197.945 57.9766C192.109 57.9766 187.926 60.7891 185.957 65.9219H185.711V46.2695H173.512V97Z" stroke="#334B36" stroke-width="2" mask="url(#path-1-outside-1_36:84)"/>
<path d="M235.211 66.6602C239.148 66.6602 241.926 69.4023 242.137 73.4805H228.215C228.531 69.5078 231.379 66.6602 235.211 66.6602ZM242.418 84.9062C241.539 87.5078 238.938 89.0898 235.598 89.0898C231.098 89.0898 228.039 85.9258 228.039 81.3555V80.582H253.879V77.0664C253.879 65.3594 246.531 57.8008 235 57.8008C223.293 57.8008 215.945 65.6758 215.945 78.0508C215.945 90.4258 223.223 97.9141 235.422 97.9141C245.441 97.9141 252.473 92.8164 253.668 84.9062H242.418Z" stroke="#334B36" stroke-width="2" mask="url(#path-1-outside-1_36:84)"/>
<path d="M261.859 97H274.34V67.8906H281.441V58.9961H273.988V57.3438C273.988 55.1289 275.43 53.793 278.84 53.793C279.824 53.793 280.879 53.8984 281.582 54.0039V46.2695C280.211 45.9883 277.75 45.7422 275.535 45.7422C265.516 45.7422 261.859 49.2227 261.859 56.7812V58.9961H256.762V67.8906H261.859V97Z" stroke="#334B36" stroke-width="2" mask="url(#path-1-outside-1_36:84)"/>
<path d="M286.715 70.5273C286.715 75.5195 289.879 78.8242 296.312 80.4766L302.746 82.1289C306.859 83.2188 308.371 84.625 308.371 87.2266C308.371 90.5312 305.312 92.6406 300.355 92.6406C295.398 92.6406 292.516 90.6016 291.848 86.8047H285.73C286.363 93.2734 291.953 97.6328 299.969 97.6328C308.512 97.6328 314.523 93.1328 314.523 86.7695C314.523 81.3906 311.852 78.7188 304.469 76.8555L298.809 75.4844C294.66 74.4297 292.727 72.7422 292.727 70.2109C292.727 67.0117 295.68 64.7969 300.145 64.7969C304.645 64.7969 307.492 66.9766 307.914 70.4922H313.75C313.469 64.3047 307.914 59.8047 300.355 59.8047C292.305 59.8047 286.715 64.2695 286.715 70.5273Z" stroke="#334B36" stroke-width="2" mask="url(#path-1-outside-1_36:84)"/>
<path d="M322.855 51.6133V60.4375H317.406V65.4648H322.855V87.5078C322.855 94.5391 325.457 97.2812 332.172 97.2812C333.613 97.2812 335.301 97.1758 336.039 97V91.8672C335.617 91.9375 334.211 92.043 333.508 92.043C330.379 92.043 328.973 90.5312 328.973 87.1914V65.4648H336.074V60.4375H328.973V51.6133H322.855Z" stroke="#334B36" stroke-width="2" mask="url(#path-1-outside-1_36:84)"/>
<path d="M356.219 65.1133C361.984 65.1133 365.816 69.4727 365.957 75.5898H346.094C346.48 69.5078 350.488 65.1133 356.219 65.1133ZM365.816 86.5234C364.797 89.9688 361.387 92.3242 356.746 92.3242C350.172 92.3242 346.059 87.7188 346.059 80.7227V80.3711H372.285V78.0508C372.285 66.9766 366.203 59.8047 356.324 59.8047C346.234 59.8047 339.766 67.5039 339.766 78.8594C339.766 90.3555 346.129 97.6328 356.605 97.6328C364.586 97.6328 370.773 92.9219 371.828 86.5234H365.816Z" stroke="#334B36" stroke-width="2" mask="url(#path-1-outside-1_36:84)"/>
<path d="M378.473 97H384.59V74.2188C384.59 69.0508 387.684 65.6406 392.43 65.6406C393.906 65.6406 395.207 65.8164 395.699 65.9922V60.0508C395.207 59.9805 394.293 59.8047 393.238 59.8047C388.949 59.8047 385.574 62.3711 384.379 66.4141H384.238V60.4375H378.473V97Z" stroke="#334B36" stroke-width="2" mask="url(#path-1-outside-1_36:84)"/>
<path d="M72.7052 19.6105C73.6123 19.6105 74.3472 18.8754 74.3472 17.9685V2.64206C74.3472 1.73491 73.6123 1 72.7052 1C71.798 1 71.0631 1.73511 71.0631 2.64206V17.9685C71.0631 18.8756 71.7982 19.6105 72.7052 19.6105Z" stroke="#334B36" stroke-width="2" mask="url(#path-1-outside-1_36:84)"/>
<path d="M100.074 57.9264H91.3786C91.5312 56.2543 90.9744 54.5848 89.8469 53.339C88.7077 52.0801 87.0805 51.3579 85.3826 51.3579H78.3565C77.7404 50.0646 76.4203 49.1685 74.8946 49.1685H63.9472C61.8345 49.1685 60.1157 50.8875 60.1157 53V63.8477C60.1157 67.0191 62.4502 69.6382 65.5462 69.9396C65.9281 69.9768 66.309 69.9782 66.6841 69.9435V70.4107C66.6841 73.7277 69.2331 76.4171 72.4872 76.5326C74.1406 76.5881 75.7 75.9931 76.8863 74.8483C78.0729 73.7033 78.7264 72.1642 78.7264 70.5157V54.6421H85.3824C86.1656 54.6421 86.8863 54.962 87.4116 55.5423C87.9371 56.1233 88.1837 56.872 88.1057 57.6512L87.9322 59.3863C87.931 59.3972 87.9298 59.4082 87.9288 59.4194L85.7854 80.8529C84.9705 89.0019 78.18 95.147 69.9904 95.147H36.0096C27.8198 95.147 21.0295 89.0019 20.2148 80.8529L17.8945 57.6514C17.8165 56.8722 18.0631 56.123 18.5886 55.5425C19.1141 54.962 19.8348 54.6423 20.6178 54.6423H55.1897C56.0968 54.6423 56.8318 53.9072 56.8318 53.0002C56.8318 52.0931 56.0968 51.3581 55.1897 51.3581H20.6178C18.9199 51.3581 17.2927 52.0803 16.1535 53.3392C15.026 54.5852 14.4692 56.2545 14.6218 57.9266H5.92639C3.21 57.9264 1 60.1364 1 62.8526V65.0421C1 67.7583 3.21 69.9685 5.92639 69.9685H11.4C12.3072 69.9685 13.0421 69.2333 13.0421 68.3264C13.0421 67.4194 12.307 66.6843 11.4 66.6843H5.92639C5.02086 66.6843 4.28433 65.9478 4.28433 65.0423V62.8528C4.28433 61.9473 5.02086 61.2107 5.92639 61.2107H14.9498L16.9465 81.1799C17.9301 91.015 26.1253 98.4318 36.0094 98.4318H69.9904C79.8742 98.4318 88.0697 91.015 89.0533 81.1799L91.05 61.2107H100.073C100.979 61.2107 101.715 61.9473 101.715 62.8528V65.0423C101.715 65.9478 100.979 66.6843 100.073 66.6843H94.6C93.6928 66.6843 92.9579 67.4194 92.9579 68.3264C92.9579 69.2333 93.693 69.9685 94.6 69.9685H100.074C102.79 69.9685 105 67.7585 105 65.0421V62.8526C105 60.1364 102.79 57.9264 100.074 57.9264ZM75.4421 70.5161C75.4421 71.2656 75.1449 71.9652 74.6054 72.4858C74.0663 73.0062 73.3566 73.2757 72.6038 73.2512C71.1506 73.1994 69.9683 71.9252 69.9683 70.4111V67.7359C69.9683 67.1487 69.6546 66.6065 69.1464 66.3132C68.8925 66.167 68.6093 66.0938 68.3262 66.0938C68.042 66.0938 67.7576 66.1676 67.5031 66.315C67.0044 66.6039 66.4377 66.7266 65.8641 66.6713C64.4822 66.5367 63.3998 65.2966 63.3998 63.8481V53C63.3998 52.6982 63.6452 52.4526 63.9472 52.4526H74.8946C75.1965 52.4526 75.4421 52.698 75.4421 53V70.5161Z" stroke="#334B36" stroke-width="2" mask="url(#path-1-outside-1_36:84)"/>
<path d="M79.2737 19.6105C80.1808 19.6105 80.9157 18.8754 80.9157 17.9685V2.64206C80.9157 1.73491 80.1808 1 79.2737 1C78.3665 1 77.6316 1.73511 77.6316 2.64206V17.9685C77.6316 18.8756 78.3667 19.6105 79.2737 19.6105Z" stroke="#334B36" stroke-width="2" mask="url(#path-1-outside-1_36:84)"/>
<path d="M19.5685 44.9985C19.7755 44.9985 19.9843 44.9896 20.1941 44.9711L87.8093 39.0559C91.7181 38.7134 94.6199 35.2556 94.2778 31.3467C93.9356 27.438 90.4774 24.5355 86.5688 24.8782L65.3025 26.7388L65.064 24.0123C64.7745 20.705 61.8424 18.2512 58.541 18.5391L45.4543 19.6839C42.1468 19.9733 39.6917 22.8995 39.9809 26.2068L40.2196 28.9332L18.9534 30.7938C17.0599 30.9595 15.3443 31.8527 14.1225 33.3087C12.9007 34.7647 12.3191 36.6093 12.4847 38.503C12.8091 42.2017 15.9228 44.9987 19.5685 44.9985ZM16.6384 35.4196C17.2963 34.6355 18.2203 34.1545 19.2396 34.0653L42.13 32.0627C42.134 32.0625 42.1379 32.0621 42.1418 32.0619C42.146 32.0615 42.1499 32.0611 42.1537 32.0609L46.5743 31.6739C47.4778 31.5949 48.1459 30.7985 48.0671 29.895C47.9881 28.9917 47.1892 28.3256 46.2881 28.4022L43.4913 28.647L43.2528 25.9206C43.1891 25.1922 43.4127 24.4829 43.8825 23.9227C44.3524 23.3627 45.0123 23.0194 45.7405 22.9556L58.8273 21.8108C60.3312 21.6802 61.6604 22.7949 61.7923 24.2985L62.0309 27.025L52.8566 27.8278C51.9531 27.9068 51.285 28.7032 51.3638 29.6067C51.4429 30.5102 52.2399 31.1787 53.1428 31.0995L86.8552 28.1499C88.9631 27.9677 90.8221 29.5283 91.0063 31.6329C91.1906 33.7375 89.6279 35.5997 87.5233 35.784L19.9077 41.6994C18.8892 41.7887 17.8951 41.4755 17.1111 40.8178C16.327 40.1599 15.846 39.2359 15.7568 38.2166C15.6677 37.1969 15.9805 36.2036 16.6384 35.4196Z" stroke="#334B36" stroke-width="2" mask="url(#path-1-outside-1_36:84)"/>
</svg>
