<svg width="397" height="114" viewBox="0 0 397 114" fill="none" xmlns="http://www.w3.org/2000/svg">
<path d="M145.07 97.8789C158.148 97.8789 167.5 89.9336 168.098 77.875H155.688C154.879 83.8164 150.766 87.543 145.105 87.543C138.004 87.543 133.574 81.5312 133.574 71.582C133.574 61.7383 138.039 55.7266 145.07 55.7266C150.73 55.7266 154.984 59.6641 155.617 65.6406H168.027C167.641 53.6523 157.902 45.3906 145.07 45.3906C129.953 45.3906 120.426 55.0586 120.426 71.6172C120.426 88.2109 129.883 97.8789 145.07 97.8789ZM173.512 97H185.992V75.4141C185.992 71.125 188.348 68.1367 192.531 68.1367C196.645 68.1367 198.789 70.8086 198.789 75.1328V97H211.234V72.4258C211.234 63.3906 206.488 57.9766 197.945 57.9766C192.109 57.9766 187.926 60.7891 185.957 65.9219H185.711V46.2695H173.512V97ZM235.211 66.6602C239.148 66.6602 241.926 69.4023 242.137 73.4805H228.215C228.531 69.5078 231.379 66.6602 235.211 66.6602ZM242.418 84.9062C241.539 87.5078 238.938 89.0898 235.598 89.0898C231.098 89.0898 228.039 85.9258 228.039 81.3555V80.582H253.879V77.0664C253.879 65.3594 246.531 57.8008 235 57.8008C223.293 57.8008 215.945 65.6758 215.945 78.0508C215.945 90.4258 223.223 97.9141 235.422 97.9141C245.441 97.9141 252.473 92.8164 253.668 84.9062H242.418ZM261.859 97H274.34V67.8906H281.441V58.9961H273.988V57.3438C273.988 55.1289 275.43 53.793 278.84 53.793C279.824 53.793 280.879 53.8984 281.582 54.0039V46.2695C280.211 45.9883 277.75 45.7422 275.535 45.7422C265.516 45.7422 261.859 49.2227 261.859 56.7812V58.9961H256.762V67.8906H261.859V97ZM286.715 70.5273C286.715 75.5195 289.879 78.8242 296.312 80.4766L302.746 82.1289C306.859 83.2188 308.371 84.625 308.371 87.2266C308.371 90.5312 305.312 92.6406 300.355 92.6406C295.398 92.6406 292.516 90.6016 291.848 86.8047H285.73C286.363 93.2734 291.953 97.6328 299.969 97.6328C308.512 97.6328 314.523 93.1328 314.523 86.7695C314.523 81.3906 311.852 78.7188 304.469 76.8555L298.809 75.4844C294.66 74.4297 292.727 72.7422 292.727 70.2109C292.727 67.0117 295.68 64.7969 300.145 64.7969C304.645 64.7969 307.492 66.9766 307.914 70.4922H313.75C313.469 64.3047 307.914 59.8047 300.355 59.8047C292.305 59.8047 286.715 64.2695 286.715 70.5273ZM322.855 51.6133V60.4375H317.406V65.4648H322.855V87.5078C322.855 94.5391 325.457 97.2812 332.172 97.2812C333.613 97.2812 335.301 97.1758 336.039 97V91.8672C335.617 91.9375 334.211 92.043 333.508 92.043C330.379 92.043 328.973 90.5312 328.973 87.1914V65.4648H336.074V60.4375H328.973V51.6133H322.855ZM356.219 65.1133C361.984 65.1133 365.816 69.4727 365.957 75.5898H346.094C346.48 69.5078 350.488 65.1133 356.219 65.1133ZM365.816 86.5234C364.797 89.9688 361.387 92.3242 356.746 92.3242C350.172 92.3242 346.059 87.7188 346.059 80.7227V80.3711H372.285V78.0508C372.285 66.9766 366.203 59.8047 356.324 59.8047C346.234 59.8047 339.766 67.5039 339.766 78.8594C339.766 90.3555 346.129 97.6328 356.605 97.6328C364.586 97.6328 370.773 92.9219 371.828 86.5234H365.816ZM378.473 97H384.59V74.2188C384.59 69.0508 387.684 65.6406 392.43 65.6406C393.906 65.6406 395.207 65.8164 395.699 65.9922V60.0508C395.207 59.9805 394.293 59.8047 393.238 59.8047C388.949 59.8047 385.574 62.3711 384.379 66.4141H384.238V60.4375H378.473V97Z" fill="#334B36"/>
<path d="M72.7052 20.1105C73.8885 20.1105 74.8472 19.1515 74.8472 17.9685V2.64206C74.8472 1.45876 73.8885 0.5 72.7052 0.5C71.5218 0.5 70.5631 1.45901 70.5631 2.64206V17.9685C70.5631 19.1518 71.5221 20.1105 72.7052 20.1105Z" fill="#334B36" stroke="#334B36"/>
<path d="M66.1844 70.4684C65.9561 70.47 65.7269 70.4596 65.4978 70.4373C62.1377 70.1101 59.6157 67.2685 59.6157 63.8477V53C59.6157 50.6114 61.5584 48.6685 63.9472 48.6685H74.8946C76.5062 48.6685 77.9131 49.5524 78.6589 50.8579H85.3826C87.2218 50.8579 88.9837 51.6398 90.2176 53.0036M66.1844 70.4684L89.8469 53.339M66.1844 70.4684C66.2138 74.0199 68.957 76.9076 72.4695 77.0323L72.4704 77.0324C74.2579 77.0923 75.949 76.4478 77.2335 75.2081C78.5178 73.9689 79.2264 72.2999 79.2264 70.5157V55.1421H85.3824C86.0243 55.1421 86.6103 55.4022 87.0408 55.8777C87.4717 56.354 87.6721 56.9629 87.6082 57.6014L87.6082 57.6014L87.4353 59.331L87.4351 59.3324C87.4351 59.3329 87.435 59.3335 87.4349 59.3341C87.4339 59.3437 87.4324 59.3572 87.4311 59.3715C87.431 59.3724 87.4309 59.3732 87.4308 59.3741L85.2879 80.8032C84.4985 88.6965 77.9231 94.647 69.9904 94.647H36.0096C28.0767 94.647 21.5015 88.6965 20.7123 80.8032L18.392 57.6016L18.392 57.6016C18.3281 56.963 18.5286 56.3538 18.9593 55.8781C19.39 55.4023 19.976 55.1423 20.6178 55.1423H55.1897C56.373 55.1423 57.3318 54.1833 57.3318 53.0002C57.3318 51.8169 56.373 50.8581 55.1897 50.8581H20.6178C18.7786 50.8581 17.0167 51.64 15.7828 53.0038C14.6841 54.2178 14.086 55.8022 14.0971 57.4266H5.92643C5.92642 57.4266 5.9264 57.4266 5.92639 57.4266C2.93385 57.4264 0.5 59.8603 0.5 62.8526V65.0421C0.5 68.0344 2.93384 70.4685 5.92639 70.4685H11.4C12.5833 70.4685 13.5421 69.5095 13.5421 68.3264C13.5421 67.1433 12.5831 66.1843 11.4 66.1843H5.92639C5.297 66.1843 4.78433 65.6717 4.78433 65.0423V62.8528C4.78433 62.2234 5.297 61.7107 5.92639 61.7107H14.4973L66.1844 70.4684ZM90.2176 53.0036L89.8469 53.339M90.2176 53.0036C90.2176 53.0035 90.2176 53.0035 90.2176 53.0035L89.8469 53.339M90.2176 53.0036C91.3163 54.2174 91.9144 55.802 91.9033 57.4264M89.8469 53.339C90.8619 54.4605 91.4144 55.9253 91.4033 57.4264H91.9033M91.9033 57.4264H100.074C103.066 57.4264 105.5 59.8602 105.5 62.8526V65.0421C105.5 68.0346 103.066 70.4685 100.074 70.4685H94.6C93.4169 70.4685 92.4579 69.5095 92.4579 68.3264C92.4579 67.1433 93.4167 66.1843 94.6 66.1843H100.073C100.703 66.1843 101.215 65.6717 101.215 65.0423V62.8528C101.215 62.2234 100.703 61.7107 100.073 61.7107H91.5025M91.9033 57.4264C91.9021 57.5928 91.8946 57.7595 91.8806 57.9264H100.074C102.79 57.9264 105 60.1364 105 62.8526V65.0421C105 67.7585 102.79 69.9685 100.074 69.9685H94.6C93.693 69.9685 92.9579 69.2333 92.9579 68.3264C92.9579 67.4194 93.6928 66.6843 94.6 66.6843H100.073C100.979 66.6843 101.715 65.9478 101.715 65.0423V62.8528C101.715 61.9473 100.979 61.2107 100.073 61.2107H91.05M91.5025 61.7107H91.05V61.2107M91.5025 61.7107L91.5475 61.2605L91.05 61.2107M91.5025 61.7107L91.05 61.2107M74.2581 72.126L74.2582 72.126C74.7001 71.6996 74.9421 71.1299 74.9421 70.5161V53C74.9421 52.9742 74.9205 52.9526 74.8946 52.9526H63.9472C63.9214 52.9526 63.8998 52.9742 63.8998 53V63.8481C63.8998 65.0565 64.8036 66.0653 65.912 66.1736C66.3822 66.2189 66.8445 66.1187 67.2525 65.8824C67.2525 65.8824 67.2525 65.8824 67.2525 65.8824L67.5031 66.3151C67.7576 66.1676 68.042 66.0938 68.3262 66.0938C68.6093 66.0938 68.8925 66.167 69.1464 66.3132L74.2581 72.126ZM74.2581 72.126C73.818 72.5509 73.2403 72.7715 72.6207 72.7514L74.2581 72.126Z" fill="#334B36" stroke="#334B36"/>
<path d="M79.2737 20.1105C80.457 20.1105 81.4157 19.1515 81.4157 17.9685V2.64206C81.4157 1.45876 80.4569 0.5 79.2737 0.5C78.0903 0.5 77.1316 1.45901 77.1316 2.64206V17.9685C77.1316 19.1518 78.0906 20.1105 79.2737 20.1105Z" fill="#334B36" stroke="#334B36"/>
<path d="M43.9458 28.1053L43.7509 25.8771L43.7509 25.877C43.6987 25.2808 43.881 24.7027 44.2656 24.244C44.6501 23.7857 45.1879 23.5059 45.7841 23.4537C45.7841 23.4537 45.7841 23.4537 45.7841 23.4537L58.8705 22.3089L43.9458 28.1053ZM43.9458 28.1053L46.2446 27.9041L46.2458 27.904C47.4195 27.8042 48.462 28.6714 48.5652 29.8514L48.5652 29.8515C48.668 31.0299 47.7966 32.0689 46.6179 32.172L42.1973 32.559L42.1887 32.5597L42.1877 32.5598L42.1786 32.5607L42.1721 32.561L42.168 32.5613L42.1678 32.5613L19.2832 34.5634C18.396 34.641 17.5941 35.0585 17.0214 35.741C16.4488 36.4233 16.1773 37.2853 16.2549 38.173C16.3325 39.0602 16.75 39.8621 17.4325 40.4348C18.115 41.0073 18.9777 41.2791 19.864 41.2013L19.8641 41.2013L87.4797 35.2859C89.3092 35.1257 90.6684 33.506 90.5082 31.6765C90.3481 29.8474 88.732 28.4898 86.8988 28.648L43.9458 28.1053ZM87.8529 39.554L87.853 39.554C92.0367 39.1874 95.1421 35.4872 94.7759 31.3031C94.4096 27.1194 90.709 24.0133 86.5253 24.3801C86.5252 24.3801 86.5252 24.3801 86.5252 24.3801L65.757 26.1971L65.5621 23.9687L65.064 24.0123L65.5621 23.9687C65.2485 20.3858 62.0735 17.7292 58.4976 18.0409L58.4975 18.041L45.4107 19.1858L45.4495 19.629L45.4107 19.1858C41.8281 19.4993 39.1695 22.668 39.4828 26.2504L39.4828 26.2504L39.6779 28.4787L18.9098 30.2957L18.9098 30.2957C16.8842 30.473 15.0465 31.4297 13.7395 32.9873C12.4324 34.5449 11.8095 36.5207 11.9866 38.5465L11.9866 38.5467C12.3338 42.506 15.666 45.4987 19.5685 45.4985C19.7897 45.4985 20.0131 45.489 20.2377 45.4692C20.2378 45.4692 20.2379 45.4692 20.238 45.4692L87.8529 39.554ZM53.1865 31.5976L86.8983 28.6481L58.8708 22.3089C60.1 22.2023 61.1865 23.1139 61.2942 24.3421C61.2942 24.3421 61.2942 24.3421 61.2942 24.3421L61.4892 26.5705L52.813 27.3297C51.6343 27.4327 50.7629 28.4718 50.8657 29.6502L50.8657 29.6503C50.9688 30.8289 52.0084 31.7009 53.1865 31.5976ZM42.1929 32.5593C42.1936 32.5592 42.1933 32.5593 42.1927 32.5593L42.1929 32.5593Z" fill="#334B36" stroke="#334B36"/>
</svg>
